<svg width="64" height="73" viewBox="0 0 64 73" fill="none" xmlns="http://www.w3.org/2000/svg">
<path fill-rule="evenodd" clip-rule="evenodd" d="M32.4041 10.7136C46.6912 10.7136 58.2731 22.2955 58.2731 36.5827C58.2731 50.8698 46.6912 62.4517 32.4041 62.4517C18.117 62.4517 6.53506 50.8698 6.53506 36.5827C6.53506 22.2955 18.117 10.7136 32.4041 10.7136Z" fill="white"/>
<path d="M2.29453 19.6014L2.66 18.9647C2.89548 18.5503 3.02546 18.2846 3.04995 18.1603C3.07444 18.0379 3.05937 17.9229 3.00851 17.8156C2.95765 17.7101 2.86722 17.6196 2.73912 17.5462C2.59406 17.4633 2.45654 17.435 2.32656 17.4614C2.19469 17.4878 2.07789 17.5631 1.97239 17.6893C1.92341 17.7534 1.79908 17.9606 1.59751 18.3072L1.21508 18.9779L2.29453 19.6014ZM4.26127 21.8696L0 19.43L1.038 17.6196C1.29986 17.1656 1.52592 16.8548 1.72184 16.6928C1.91588 16.5308 2.14759 16.4441 2.41321 16.4309C2.68072 16.4196 2.94069 16.4856 3.19124 16.6287C3.5115 16.8115 3.72249 17.0564 3.82233 17.3653C3.92406 17.6724 3.89392 18.0284 3.73379 18.4335C3.94855 18.3091 4.15577 18.2244 4.35546 18.1791C4.55515 18.132 4.87917 18.1 5.32753 18.0849L6.45784 18.0397L5.86819 19.0702L4.58529 19.1606C4.12752 19.1927 3.83175 19.2247 3.698 19.2567C3.56613 19.2887 3.45687 19.3415 3.37398 19.4131C3.2892 19.4865 3.19124 19.6222 3.07633 19.8181L2.97648 19.9933L4.75484 21.0106L4.26127 21.8696Z" fill="white"/>
<path d="M5.57238 15.4398C5.99248 15.8034 6.39562 15.9823 6.77993 15.9767C7.16423 15.971 7.48637 15.8184 7.74634 15.5189C8.00443 15.2194 8.10992 14.8822 8.06094 14.5035C8.01196 14.1267 7.77083 13.75 7.34131 13.377C6.91556 13.0077 6.51807 12.8269 6.14695 12.8325C5.77583 12.8382 5.45746 12.9945 5.18807 13.3035C4.92057 13.6124 4.8113 13.9534 4.8584 14.3264C4.90926 14.6994 5.14663 15.0705 5.57238 15.4398ZM4.92998 16.2348C4.55133 15.907 4.28382 15.5754 4.12558 15.2401C4.00878 14.9914 3.93908 14.7296 3.91647 14.4545C3.89198 14.1776 3.92024 13.9214 3.99748 13.6859C4.09921 13.3694 4.28194 13.0605 4.54379 12.7572C5.01852 12.2109 5.56484 11.9207 6.1884 11.8849C6.81195 11.851 7.42609 12.0941 8.0308 12.6178C8.62987 13.1377 8.95766 13.7066 9.01417 14.3264C9.07069 14.9443 8.86346 15.5264 8.39062 16.0709C7.914 16.6228 7.36392 16.9167 6.74602 16.9506C6.12435 16.9864 5.51963 16.7472 4.92998 16.2348Z" fill="white"/>
<path d="M7.21893 9.95817L7.97059 9.31013L9.7075 11.3221C9.98442 11.6423 10.1709 11.8401 10.2727 11.9193C10.4365 12.0436 10.6174 12.1001 10.819 12.0869C11.0205 12.0737 11.224 11.9777 11.4331 11.7968C11.646 11.6122 11.7684 11.4313 11.8023 11.2505C11.8344 11.0696 11.808 10.9076 11.7213 10.7607C11.6328 10.6138 11.4632 10.3933 11.2089 10.1013L9.43246 8.04795L10.1841 7.3999L11.8683 9.35157C12.2545 9.79804 12.505 10.1315 12.6237 10.35C12.7424 10.5704 12.8008 10.7889 12.8027 11.0112C12.8027 11.2317 12.7443 11.4577 12.6256 11.6913C12.5088 11.923 12.3016 12.166 12.0077 12.4204C11.6516 12.7274 11.3483 12.9177 11.094 12.9949C10.8397 13.0703 10.6023 13.091 10.3838 13.0515C10.1653 13.0119 9.97689 12.9347 9.81865 12.8216C9.58505 12.6502 9.28928 12.3563 8.93135 11.9419L7.21893 9.95817Z" fill="white"/>
<path d="M14.2777 10.5666L11.6553 6.41271L12.4711 5.89653L15.9223 7.59765L14.1722 4.82274L14.9502 4.33105L17.5725 8.48494L16.7304 9.01619L13.3452 7.36405L15.0557 10.073L14.2777 10.5666Z" fill="white"/>
<path d="M17.9738 3.81483L19.1418 6.85348L19.8332 6.58597C20.0912 6.48801 20.2721 6.40136 20.3757 6.32789C20.5113 6.23369 20.6112 6.12066 20.6771 5.99445C20.7412 5.86634 20.7657 5.68738 20.7487 5.45755C20.7318 5.22772 20.6564 4.93572 20.5189 4.58156C20.3832 4.22739 20.2476 3.96742 20.112 3.80164C19.9763 3.63586 19.8313 3.52095 19.6768 3.45878C19.5242 3.39662 19.3528 3.37966 19.1663 3.40792C19.025 3.42864 18.7669 3.51153 18.3901 3.65659L17.9738 3.81483ZM16.7512 3.39473L18.4429 2.7448C18.8234 2.59786 19.1267 2.51686 19.349 2.49802C19.6485 2.47353 19.933 2.52628 20.2024 2.65438C20.4718 2.78248 20.7129 2.97463 20.9258 3.22895C21.1387 3.48327 21.3289 3.82425 21.4928 4.25377C21.6379 4.63242 21.7151 4.97528 21.7264 5.28423C21.7396 5.661 21.6812 5.99444 21.5475 6.28267C21.4457 6.5012 21.2762 6.70654 21.0369 6.89869C20.858 7.04187 20.598 7.17939 20.2551 7.30937L18.5126 7.98002L16.7512 3.39473Z" fill="white"/>
<path d="M26.0857 5.47079L25.3604 1.45442L23.9249 1.71251L23.7779 0.894917L27.621 0.20166L27.7679 1.01925L26.3362 1.27922L27.0615 5.29559L26.0857 5.47079Z" fill="white"/>
<path d="M31.0571 2.94823L30.2358 1.18683L29.7215 3.05749L31.0571 2.94823ZM33.037 4.73788L31.9614 4.82642L31.4433 3.74886L29.4841 3.90899L29.1714 5.05249L28.1221 5.13726L29.631 0.084773L30.6766 0L33.037 4.73788Z" fill="white"/>
<path d="M34.7476 2.8542L34.6383 4.1616L35.552 4.23883C35.908 4.26898 36.136 4.27651 36.232 4.26521C36.3809 4.25202 36.5052 4.1955 36.6069 4.09943C36.7068 4.00335 36.7652 3.86772 36.7802 3.6944C36.7915 3.54746 36.7671 3.41936 36.703 3.31198C36.6408 3.20272 36.5448 3.11983 36.4148 3.06143C36.2829 3.00303 35.9928 2.95593 35.5444 2.91825L34.7476 2.8542ZM34.9096 0.908187L34.8154 2.04038L35.4634 2.09313C35.8477 2.12515 36.0889 2.13834 36.1812 2.13646C36.3526 2.13081 36.4901 2.08371 36.5956 1.99328C36.7011 1.90474 36.7595 1.78229 36.7727 1.62405C36.7859 1.47334 36.7539 1.34712 36.6785 1.2454C36.6032 1.14367 36.4845 1.07585 36.3206 1.04382C36.2226 1.02499 35.9419 0.994844 35.4785 0.957167L34.9096 0.908187ZM33.9884 0.0114746L35.9438 0.173486C36.33 0.207395 36.6182 0.246956 36.8066 0.294052C36.9931 0.341148 37.1589 0.424038 37.3002 0.538953C37.4415 0.653868 37.5545 0.800808 37.6412 0.979773C37.7278 1.15686 37.7617 1.35278 37.7448 1.56377C37.7259 1.7936 37.6468 1.99894 37.5074 2.17979C37.368 2.36064 37.189 2.49062 36.9686 2.56974C37.2587 2.68089 37.4754 2.84855 37.6186 3.07085C37.7617 3.29314 37.8201 3.54558 37.7975 3.82815C37.7787 4.05045 37.7109 4.26332 37.5884 4.4649C37.466 4.66647 37.3134 4.82283 37.1231 4.93397C36.9328 5.04512 36.7049 5.10352 36.4411 5.11106C36.2754 5.11482 35.8779 5.09222 35.2468 5.04512L33.5815 4.9076L33.9884 0.0114746Z" fill="white"/>
<path d="M38.5529 5.46117L39.6493 0.713867L40.6158 0.936162L39.7059 4.87906L42.1097 5.43291L41.9232 6.2392L38.5529 5.46117Z" fill="white"/>
<path d="M42.5637 6.48606L44.3326 1.90454L47.7311 3.2157L47.4315 3.99185L44.958 3.03673L44.5662 4.05213L46.8664 4.93942L46.5669 5.7118L44.2686 4.82451L43.7863 6.06973L46.3446 7.06064L46.0469 7.83113L42.5637 6.48606Z" fill="white"/>
<path d="M51.0621 5.08161L48.4321 9.23169L49.2707 9.76313L51.9007 5.61305L51.0621 5.08161Z" fill="white"/>
<path d="M50.1386 10.1917L53.1848 6.34302L53.9402 6.94208L53.4824 10.7588L55.517 8.18919L56.2385 8.76L53.1923 12.6106L52.4124 11.9927L52.8457 8.25324L50.8601 10.7644L50.1386 10.1917Z" fill="white"/>
<path d="M57.6608 11.254L55.289 13.4826L55.7958 14.0233C55.9861 14.2248 56.133 14.3605 56.2404 14.4283C56.3798 14.5187 56.5211 14.5677 56.6643 14.579C56.8074 14.5922 56.9807 14.5451 57.188 14.4433C57.3933 14.3416 57.6344 14.1608 57.9132 13.8989C58.1902 13.6389 58.3804 13.4148 58.4822 13.2264C58.5839 13.038 58.6348 12.8609 58.6348 12.6951C58.6366 12.5294 58.5858 12.3655 58.4897 12.2016C58.4181 12.0791 58.2429 11.8719 57.966 11.5761L57.6608 11.254ZM57.5873 9.96167L58.8307 11.2822C59.1114 11.5799 59.3016 11.8286 59.4034 12.0283C59.539 12.2958 59.5993 12.5783 59.5805 12.8779C59.5635 13.1774 59.4768 13.4732 59.3224 13.7652C59.1679 14.059 58.923 14.3623 58.5858 14.6788C58.29 14.9558 58.0037 15.1573 57.7211 15.2835C57.3763 15.4399 57.0448 15.5096 56.7283 15.4945C56.4891 15.4832 56.2347 15.4041 55.9653 15.2553C55.7638 15.1441 55.5396 14.9539 55.2872 14.6864L54.008 13.3262L57.5873 9.96167Z" fill="white"/>
<path d="M61.1222 13.9353L57.2674 16.9751L57.881 17.7532L61.7358 14.7133L61.1222 13.9353Z" fill="white"/>
<path d="M61.4926 19.7803L62.7397 18.2902L60.8295 18.6161L61.4926 19.7803ZM60.7089 22.3292L60.1739 21.3929L60.9312 20.4679L59.9591 18.763L58.7893 18.9627L58.2675 18.0491L63.4801 17.2786L64 18.1903L60.7089 22.3292Z" fill="white"/>
<path fill-rule="evenodd" clip-rule="evenodd" d="M4.94701 27.6399C4.86789 27.8735 4.7963 28.0751 4.73225 28.2992C4.93759 28.3727 5.12975 28.4311 5.3332 28.5065C5.19568 28.2201 5.06758 27.9375 4.94701 27.6399Z" fill="#E47A27"/>
<path fill-rule="evenodd" clip-rule="evenodd" d="M5.78154 28.6571C6.58595 28.9886 6.95707 28.8756 7.65032 29.2203C10.5703 18.3581 20.8354 11.0129 31.7523 10.7737C38.813 10.51 45.3292 13.2528 50.1217 17.7232C53.0944 20.4849 55.421 23.9512 56.8094 27.8734C57.2483 27.6059 59.7049 26.4228 59.7633 26.2363C54.5751 14.4943 44.4928 7.33755 31.6016 7.37146C19.0062 7.83677 8.58094 16.2632 4.94135 27.6417C5.06945 27.9431 5.19755 28.2219 5.3313 28.5101C5.48389 28.5742 5.64214 28.6043 5.78154 28.6571Z" fill="#E47A27"/>
<path fill-rule="evenodd" clip-rule="evenodd" d="M51.463 53.925C47.019 58.7382 40.7062 61.8409 33.6474 62.1028C26.566 62.3552 19.7522 60.0419 14.937 55.5753C12.3336 53.1564 10.2576 50.0688 8.83525 46.7344C7.91216 47.3428 7.20007 47.7592 6.06787 48.3469C10.7737 58.8946 21.5211 66.0815 33.7624 65.6294C46.0093 65.181 56.2009 57.2161 60.1118 46.3519C58.9457 45.8565 57.8775 45.3215 56.9186 44.7883C55.7431 48.2188 53.8838 51.3291 51.463 53.925Z" fill="#008342"/>
<path fill-rule="evenodd" clip-rule="evenodd" d="M7.43361 28.9887C7.41854 28.9661 5.43673 28.4518 4.73217 28.303C2.77485 34.9737 3.17235 42.121 5.9661 48.5186C7.06815 47.88 7.62388 47.6068 8.63928 46.8344C6.40126 44.0934 5.87002 34.19 7.43361 28.9887Z" fill="white"/>
<path fill-rule="evenodd" clip-rule="evenodd" d="M59.7463 26.2476C59.2414 26.483 56.8791 27.7207 56.8357 27.8055C57.3877 29.7685 58.2185 33.4269 58.2919 35.5481C58.3937 38.1836 57.7117 42.4355 57.0674 44.8487C58.1017 45.5683 58.9362 45.898 59.9478 46.45C61.8788 40.2107 62.4628 32.3964 59.7463 26.2476Z" fill="white"/>
<path fill-rule="evenodd" clip-rule="evenodd" d="M55.5152 43.8827C55.9768 44.1954 56.3931 44.5006 56.9187 44.7907C57.0995 44.2369 57.2973 43.6905 57.4443 43.1216C56.9752 42.8014 56.5005 42.4773 56.022 42.1665C55.8675 42.7618 55.7093 43.3326 55.5152 43.8827Z" fill="black"/>
<path d="M60.7165 58.2374L57.5836 55.9787L59.2546 53.6597L59.7839 54.0421L58.5689 55.7263L59.264 56.2274L60.3924 54.6619L60.9218 55.0443L59.7934 56.6098L60.6411 57.222L61.8995 55.4776L62.4289 55.86L60.7165 58.2374ZM59.0474 60.2418L55.2156 58.7781L55.7657 58.1357L58.5745 59.2509L57.0166 56.6776L57.5572 56.0465L59.5956 59.6013L59.0474 60.2418ZM54.5111 62.0654C54.8144 62.3819 55.1177 62.5496 55.4191 62.574C55.7205 62.5967 55.9842 62.5006 56.2103 62.2858C56.4363 62.0692 56.5418 61.813 56.5324 61.5116C56.5211 61.212 56.361 60.8993 56.0502 60.5753C55.7431 60.255 55.4454 60.0836 55.1534 60.061C54.8615 60.0384 54.6015 60.1382 54.3679 60.3605C54.1362 60.5828 54.025 60.8428 54.0344 61.1386C54.0439 61.4362 54.204 61.7452 54.5111 62.0654ZM53.9497 62.6419C53.6765 62.3574 53.4919 62.0786 53.3902 61.8036C53.3167 61.602 53.2809 61.3891 53.2828 61.1725C53.2847 60.9539 53.3242 60.7561 53.4015 60.5753C53.5051 60.336 53.6709 60.1062 53.8969 59.8877C54.3076 59.494 54.7597 59.3075 55.2514 59.3244C55.7431 59.3432 56.2065 59.5806 56.6417 60.0346C57.0731 60.4849 57.2897 60.9558 57.2897 61.4456C57.2897 61.9354 57.0844 62.3762 56.6737 62.7681C56.2593 63.1656 55.8071 63.3558 55.3192 63.337C54.8332 63.3182 54.3754 63.0865 53.9497 62.6419ZM51.5722 63.9398L52.0413 63.6026C52.3446 63.3841 52.5255 63.2353 52.582 63.1562C52.6385 63.077 52.6668 62.9885 52.6649 62.8962C52.663 62.802 52.6272 62.7078 52.5594 62.6136C52.484 62.5081 52.3936 62.4441 52.29 62.4177C52.1864 62.3932 52.079 62.4102 51.9641 62.4667C51.9076 62.4968 51.7512 62.6042 51.4931 62.7869L50.9996 63.1411L51.5722 63.9398ZM52.2354 66.2061L49.9842 63.0695L51.3179 62.1125C51.6533 61.8714 51.917 61.7244 52.1091 61.6717C52.3013 61.6189 52.4953 61.6321 52.6894 61.7094C52.8853 61.7885 53.0492 61.9204 53.1811 62.105C53.3506 62.3405 53.4203 62.5835 53.3939 62.8359C53.3657 63.0883 53.23 63.3332 52.9833 63.5706C53.1773 63.5518 53.3525 63.5593 53.5088 63.5913C53.6671 63.6234 53.9082 63.7081 54.2341 63.8438L55.0555 64.181L54.2982 64.7254L53.3525 64.3656C53.0153 64.2394 52.793 64.1659 52.6875 64.1471C52.582 64.1263 52.4878 64.1282 52.403 64.1546C52.3183 64.1791 52.2033 64.245 52.0564 64.3505L51.9283 64.4428L52.8683 65.7521L52.2354 66.2061ZM48.2171 64.895L48.771 65.8463L49.1383 65.6315C49.4039 65.4771 49.5697 65.3565 49.6375 65.2698C49.7072 65.1832 49.7449 65.0871 49.7506 64.9835C49.7581 64.8799 49.7336 64.7782 49.6752 64.6783C49.6036 64.5559 49.5094 64.4767 49.3926 64.4391C49.2758 64.4014 49.1572 64.4033 49.0347 64.4466C48.9462 64.4786 48.7804 64.5634 48.5392 64.7047L48.2171 64.895ZM49.1553 68.0617L47.213 64.7235L48.2944 64.0943C48.7031 63.857 48.9801 63.7175 49.1232 63.678C49.3437 63.6177 49.5678 63.6328 49.7939 63.7251C50.02 63.8174 50.2102 63.9964 50.3666 64.262C50.4853 64.4673 50.5493 64.6595 50.5569 64.8441C50.5644 65.0268 50.5342 65.1907 50.4664 65.3377C50.3986 65.4827 50.312 65.6033 50.2102 65.6975C50.0671 65.8237 49.8448 65.9744 49.5415 66.1515L49.1025 66.4058L49.8353 67.6642L49.1553 68.0617ZM45.0692 69.9531L43.4773 66.4359L44.5436 65.9537L46.2598 68.0674L45.7982 65.3866L46.8683 64.9025L48.4601 68.4196L47.8027 68.7173L46.548 65.948L47.1075 69.0319L46.4237 69.3408L44.4814 66.8843L45.7323 69.6554L45.0692 69.9531ZM43.6167 70.4014L42.3809 66.743L43.1213 66.4925L44.3571 70.1509L43.6167 70.4014ZM40.7514 69.8457L40.5856 69.1261L41.3053 68.9603L41.471 69.6799L40.7514 69.8457ZM36.9065 71.9198L36.5203 68.7342L35.3862 68.8718L35.3071 68.2237L38.3476 67.8545L38.4267 68.5025L37.2964 68.64L37.6826 71.8256L36.9065 71.9198ZM33.135 68.9867L33.1689 70.0868L33.5947 70.0737C33.9017 70.0642 34.1052 70.0379 34.2069 69.9926C34.3086 69.9493 34.3878 69.8834 34.4443 69.7948C34.5008 69.7063 34.5272 69.6065 34.5234 69.4915C34.5196 69.3503 34.4744 69.2353 34.3897 69.1468C34.3049 69.0583 34.1994 69.0036 34.0713 68.9848C33.979 68.9697 33.7925 68.9678 33.5118 68.9754L33.135 68.9867ZM32.4531 72.2194L32.3325 68.3593L33.5815 68.3198C34.0543 68.3047 34.3633 68.3141 34.5083 68.348C34.7306 68.3989 34.9209 68.5195 35.0754 68.7097C35.2298 68.9 35.3127 69.1468 35.3222 69.4539C35.3297 69.6912 35.292 69.8909 35.2129 70.0548C35.1319 70.2187 35.0264 70.3487 34.8983 70.4467C34.7683 70.5427 34.6364 70.6068 34.5008 70.6407C34.3162 70.684 34.0487 70.7104 33.6964 70.7217L33.1896 70.7368L33.2349 72.193L32.4531 72.2194ZM30.7256 70.6369L30.2998 69.1713L29.6725 70.5559L30.7256 70.6369ZM32.033 72.274L31.1928 72.2099L30.9271 71.3076L29.3824 71.1908L28.9962 72.0423L28.1711 71.9801L29.9588 68.2444L30.7821 68.3066L32.033 72.274ZM26.0725 68.3763L25.609 70.8894L26.1798 70.9949C26.3927 71.0344 26.5491 71.0495 26.647 71.0438C26.777 71.0363 26.89 71.0024 26.9842 70.9421C27.0803 70.8837 27.1689 70.7726 27.2517 70.6124C27.3346 70.4523 27.4043 70.2244 27.4571 69.9305C27.5117 69.6366 27.5268 69.4087 27.5042 69.241C27.4816 69.0733 27.4326 68.9396 27.3554 68.8341C27.2781 68.7286 27.1726 68.6476 27.0351 68.5911C26.9334 68.5477 26.7261 68.4969 26.4153 68.4385L26.0725 68.3763ZM25.4225 67.5926L26.8203 67.8507C27.1368 67.9091 27.3723 67.9769 27.5287 68.0561C27.7378 68.1615 27.9073 68.3141 28.0354 68.5119C28.1635 68.7079 28.2464 68.9358 28.2841 69.1939C28.3218 69.452 28.3086 69.759 28.2426 70.1132C28.1842 70.4259 28.0957 70.6878 27.977 70.8988C27.832 71.1588 27.6549 71.3566 27.4477 71.4941C27.2913 71.5996 27.0935 71.6674 26.8543 71.6975C26.6753 71.7201 26.4455 71.7051 26.1629 71.6523L24.7236 71.3867L25.4225 67.5926ZM23.3465 69.4482L23.2128 67.928L22.3274 69.1656L23.3465 69.4482ZM24.3129 71.3057L23.501 71.0796L23.4143 70.1434L21.9223 69.7289L21.3779 70.49L20.581 70.2696L23.0583 66.9502L23.8533 67.1706L24.3129 71.3057ZM18.3543 68.1126L18.6294 67.4268L19.3151 67.7019L19.04 68.3876L18.3543 68.1126ZM14.8504 67.5889L16.4554 64.8102L15.4645 64.2375L15.7904 63.6723L18.4429 65.2039L18.117 65.7691L17.1317 65.2001L15.5267 67.9788L14.8504 67.5889ZM13.6277 62.9998L12.9854 63.8927L13.3301 64.1414C13.5788 64.3204 13.7558 64.424 13.8632 64.4504C13.9706 64.4786 14.0723 64.4749 14.1722 64.4372C14.2701 64.4014 14.353 64.3373 14.419 64.245C14.5018 64.1301 14.5358 64.0114 14.5226 63.8909C14.5094 63.7684 14.4585 63.661 14.37 63.5687C14.304 63.5009 14.159 63.3841 13.931 63.2202L13.6277 62.9998ZM11.1185 65.1455L13.3772 62.0127L14.3907 62.7436C14.775 63.0205 15.0143 63.2164 15.1084 63.3314C15.2535 63.5084 15.3307 63.7175 15.3383 63.9624C15.3458 64.2073 15.2592 64.4541 15.0802 64.7028C14.9408 64.895 14.7901 65.0306 14.6262 65.1116C14.4623 65.1926 14.2984 65.2322 14.1383 65.2303C13.9781 65.2265 13.8331 65.1983 13.705 65.1417C13.5317 65.0626 13.3037 64.9213 13.0174 64.7141L12.6067 64.4183L11.7552 65.5995L11.1185 65.1455ZM9.64152 61.4324C9.35517 61.7621 9.21388 62.0805 9.21765 62.3838C9.22142 62.6871 9.34198 62.9414 9.57747 63.1449C9.81295 63.3502 10.0786 63.4312 10.3781 63.3935C10.6757 63.354 10.9715 63.1656 11.2654 62.8284C11.5555 62.493 11.7006 62.1803 11.6949 61.8883C11.6911 61.5963 11.5687 61.3458 11.3238 61.1329C11.0808 60.9219 10.8114 60.8353 10.5194 60.8729C10.2255 60.9106 9.93351 61.0971 9.64152 61.4324ZM9.01796 60.9257C9.27605 60.628 9.5379 60.417 9.80164 60.2927C9.99568 60.2004 10.2029 60.1458 10.4214 60.1288C10.6381 60.11 10.8396 60.1326 11.0261 60.1929C11.2748 60.2739 11.5178 60.417 11.7552 60.6243C12.1847 60.9973 12.4127 61.4306 12.439 61.9204C12.4654 62.412 12.2714 62.8943 11.8588 63.3709C11.45 63.8419 10.9998 64.1 10.5137 64.1433C10.0258 64.1885 9.56805 64.0227 9.14041 63.6516C8.70713 63.2748 8.4773 62.8434 8.45092 62.3555C8.42455 61.8676 8.61293 61.391 9.01796 60.9257ZM8.0459 58.0057L6.19972 59.7746L6.60098 60.1929C6.75169 60.3492 6.86849 60.4528 6.95138 60.5056C7.06252 60.5753 7.17367 60.613 7.28482 60.6205C7.39785 60.628 7.53349 60.5922 7.69362 60.5093C7.85563 60.4283 8.04401 60.2833 8.25877 60.0779C8.47353 59.8707 8.62047 59.6955 8.69959 59.5448C8.77871 59.396 8.81827 59.2566 8.81639 59.1266C8.81451 58.9966 8.77683 58.8685 8.69959 58.7423C8.64308 58.6481 8.50367 58.4842 8.28514 58.2563L8.0459 58.0057ZM7.97619 56.9903L8.95956 58.017C9.18186 58.2487 9.33256 58.4428 9.41357 58.5972C9.52095 58.8064 9.56993 59.0286 9.55863 59.2622C9.54732 59.4958 9.48139 59.7294 9.36271 59.9611C9.24214 60.191 9.05187 60.434 8.7919 60.6827C8.56207 60.9031 8.33789 61.0632 8.11748 61.1649C7.84809 61.2893 7.58812 61.3477 7.33945 61.3401C7.15107 61.3345 6.95138 61.2742 6.7385 61.1593C6.58026 61.0726 6.40129 60.9257 6.20349 60.7185L5.18998 59.6616L7.97619 56.9903ZM5.30866 57.3106L6.16393 56.0465L4.69641 56.4496L5.30866 57.3106ZM4.88668 59.3621L4.39876 58.6745L4.92247 57.8946L4.02576 56.6324L3.1234 56.8792L2.6449 56.2048L6.66127 55.1912L7.13976 55.8657L4.88668 59.3621Z" fill="white"/>
<path fill-rule="evenodd" clip-rule="evenodd" d="M33.0276 34.3784C33.0653 34.0035 33.1313 33.4421 33.1614 33.1068C33.2386 31.6544 33.4967 30.7275 34.1674 29.908C34.3219 29.5106 34.3897 29.1244 34.5328 28.7419C34.7702 28.8098 34.6214 28.774 34.8343 28.8343C34.7212 29.3429 34.6402 29.5332 34.5762 30.055C34.6628 31.1985 34.4631 32.0651 33.6324 33.2839C33.4986 33.5307 33.2933 34.1203 33.1802 34.3841C32.8449 34.2805 33.3215 34.4557 33.0276 34.3784Z" fill="#177AA9"/>
<path fill-rule="evenodd" clip-rule="evenodd" d="M33.5721 34.5932C33.7096 34.2598 33.93 33.7191 34.0299 33.4064C34.4726 32.0368 34.9774 31.1985 35.8308 30.5995C36.0946 30.2491 36.2528 29.8949 36.4845 29.5596C36.6955 29.6839 36.5505 29.6199 36.7577 29.7272C36.509 30.2076 36.3941 30.364 36.1831 30.8519C35.9627 31.9728 35.5445 32.7621 34.4405 33.7172C34.2295 33.9358 33.8923 34.4425 33.7134 34.6554C33.4346 34.4689 33.8339 34.7778 33.5721 34.5932Z" fill="#177AA9"/>
<path fill-rule="evenodd" clip-rule="evenodd" d="M34.0562 34.9811C34.2691 34.6721 34.6176 34.2125 34.7853 33.9468C35.5803 32.7223 36.2829 32.0404 37.2701 31.658C37.6054 31.4018 37.8616 31.1192 38.163 30.8479C38.3288 31.0344 38.2214 30.9233 38.3929 31.0872C38.0199 31.4846 37.871 31.5939 37.5545 32.014C37.0629 33.0351 36.428 33.7095 35.1187 34.3406C34.8701 34.4875 34.3897 34.8831 34.1768 35.0658C33.9281 34.8134 34.2465 35.1977 34.0562 34.9811Z" fill="#177AA9"/>
<path fill-rule="evenodd" clip-rule="evenodd" d="M34.418 35.4655C34.6817 35.2263 35.1432 34.8778 35.3844 34.6536C36.4902 33.6664 37.3304 33.2011 38.3872 33.1088C38.7696 32.9412 39.0861 32.7094 39.4667 32.5493C39.574 32.749 39.4836 32.6115 39.6136 32.8281C39.1671 33.1069 38.9938 33.1974 38.5549 33.5063C37.7938 34.3823 37.0403 34.8551 35.6104 35.1302C35.3373 35.2093 34.757 35.473 34.5046 35.5785C34.3351 35.2639 34.5442 35.7274 34.418 35.4655Z" fill="#177AA9"/>
<path fill-rule="evenodd" clip-rule="evenodd" d="M34.6421 36.0042C34.9793 35.8647 35.5105 35.633 35.7894 35.4767C37.0911 34.8305 38.0217 34.5931 39.0691 34.7552C39.5024 34.6949 39.8396 34.5743 40.2597 34.4971C40.3483 34.7269 40.2805 34.5856 40.3483 34.806C39.8396 34.953 39.6531 34.9963 39.1652 35.196C38.1913 35.8365 37.3379 36.0908 35.8835 35.9834C35.5916 36.0023 34.9868 36.1247 34.693 36.1511C34.6195 35.8026 34.6817 36.315 34.6421 36.0042Z" fill="#177AA9"/>
<path fill-rule="evenodd" clip-rule="evenodd" d="M34.7175 36.6088C35.0585 36.5504 35.6387 36.4807 35.9646 36.4016C37.3831 36.0983 38.3514 36.1058 39.3141 36.5523C39.7417 36.6088 40.1091 36.5749 40.531 36.6088C40.531 36.865 40.531 36.6936 40.531 36.9215C39.9923 36.9517 39.8058 36.9215 39.2707 36.9969C38.1913 37.3755 37.2814 37.3944 35.9081 36.9215C35.618 36.865 35.0151 36.8085 34.7175 36.7652C34.7325 36.4016 34.6911 36.9121 34.7175 36.6088Z" fill="#177AA9"/>
<path fill-rule="evenodd" clip-rule="evenodd" d="M34.6233 37.1985C34.9812 37.2399 35.569 37.3266 35.8836 37.3304C37.3361 37.4076 38.2761 37.6638 39.0956 38.3363C39.4818 38.5078 39.8604 38.5699 40.2579 38.7206C40.1807 38.9542 40.2146 38.7866 40.1694 39.0296C39.6457 38.9015 39.4686 38.8318 38.9241 38.7621C37.7901 38.8318 36.9197 38.6283 35.7084 37.8089C35.4484 37.6864 34.8626 37.4886 34.6158 37.3699C34.7175 37.0195 34.5291 37.498 34.6233 37.1985Z" fill="#177AA9"/>
<path fill-rule="evenodd" clip-rule="evenodd" d="M34.386 37.7544C34.7175 37.8976 35.2544 38.1048 35.5747 38.2122C36.9574 38.6568 37.7938 39.139 38.4099 40.0112C38.7471 40.2882 39.1012 40.4219 39.446 40.6762C39.3141 40.8854 39.3857 40.7252 39.2595 40.9343C38.8149 40.6894 38.634 40.5689 38.1555 40.3748C37.0233 40.1412 36.2397 39.7155 35.2864 38.6266C35.0547 38.4307 34.5517 38.0841 34.3351 37.9089C34.5291 37.6037 34.2126 38.0031 34.386 37.7544Z" fill="#177AA9"/>
<path fill-rule="evenodd" clip-rule="evenodd" d="M34.0204 38.231C34.3237 38.4476 34.7569 38.7905 35.0546 38.9788C36.2716 39.755 36.9479 40.452 37.302 41.441C37.5808 41.7858 37.8709 42.0326 38.1554 42.3509C37.9614 42.5205 38.0801 42.398 37.903 42.5695C37.5319 42.204 37.4019 42.0533 36.9761 41.7293C35.9438 41.2357 35.2976 40.6008 34.6458 39.2991C34.4857 39.0523 34.0976 38.5889 33.9375 38.3572C34.2012 38.1104 33.7999 38.4269 34.0204 38.231Z" fill="#177AA9"/>
<path fill-rule="evenodd" clip-rule="evenodd" d="M33.54 38.5847C33.7736 38.8711 34.1202 39.3251 34.3349 39.5662C35.3164 40.657 35.7893 41.4915 35.8853 42.5465C36.0737 42.9477 36.281 43.2491 36.4656 43.6504C36.2339 43.754 36.3789 43.6673 36.166 43.7823C35.891 43.3358 35.8175 43.1644 35.4822 42.733C34.6251 41.9907 34.1503 41.2127 33.8809 39.7828C33.7999 39.5003 33.5155 38.9464 33.4401 38.6846C33.7227 38.5094 33.2668 38.7279 33.54 38.5847Z" fill="#177AA9"/>
<path fill-rule="evenodd" clip-rule="evenodd" d="M32.9899 38.813C33.1312 39.1427 33.3554 39.6777 33.5042 39.9753C34.1673 41.2639 34.3896 42.202 34.2106 43.2495C34.2916 43.679 34.4216 44.0237 34.4763 44.4457C34.2464 44.5154 34.3896 44.4457 34.1805 44.5154C34.0279 44.02 33.9978 43.8146 33.7981 43.3154C33.15 42.381 32.8957 41.5182 32.988 40.0695C32.9824 39.7643 32.8674 39.1672 32.8505 38.8789C33.1915 38.7866 32.6809 38.877 32.9899 38.813Z" fill="#177AA9"/>
<path fill-rule="evenodd" clip-rule="evenodd" d="M32.387 38.8922C32.4473 39.2482 32.5151 39.8134 32.5924 40.1393C32.9051 41.5559 32.8712 42.5242 32.4473 43.4906C32.387 43.9183 32.4266 44.2875 32.387 44.7095C32.1327 44.7095 32.3192 44.685 32.0574 44.702C32.046 44.1669 32.0668 43.9691 31.9971 43.4379C31.6278 42.3811 31.6015 41.4674 32.0649 40.0941C32.1308 39.7964 32.1911 39.1823 32.2439 38.9016C32.5886 38.9298 32.0894 38.8771 32.387 38.8922Z" fill="#177AA9"/>
<path fill-rule="evenodd" clip-rule="evenodd" d="M31.7843 38.7998C31.7447 39.1634 31.6712 39.7154 31.658 40.0676C31.5789 41.5201 31.3284 42.4658 30.6577 43.2645C30.4844 43.6677 30.4166 44.0426 30.2753 44.4288C30.0342 44.3534 30.1981 44.393 29.9701 44.3308C30.0907 43.8165 30.1641 43.6545 30.2451 43.1101C30.1604 41.9835 30.3601 41.1056 31.1795 39.9C31.3001 39.6249 31.5092 39.0447 31.6411 38.7885C31.9651 38.8827 31.4998 38.7207 31.7824 38.8092L31.7843 38.7998Z" fill="#177AA9"/>
<path fill-rule="evenodd" clip-rule="evenodd" d="M31.2399 38.5699C31.1155 38.9165 30.8932 39.4383 30.7859 39.7567C30.3262 41.1338 29.8458 41.9815 28.9774 42.5844C28.7136 42.9216 28.561 43.2776 28.3199 43.6186C28.107 43.4905 28.2577 43.5564 28.0618 43.4377C28.3011 42.9687 28.416 42.818 28.6307 42.3206C28.8361 41.2091 29.2769 40.4029 30.3789 39.4591C30.5636 39.2462 30.9215 38.7319 31.1099 38.5115C31.3962 38.7074 30.9818 38.3928 31.2399 38.5699Z" fill="#177AA9"/>
<path fill-rule="evenodd" clip-rule="evenodd" d="M30.752 38.2066C30.5391 38.4948 30.2057 38.9526 30.0192 39.2408C29.2317 40.4521 28.5328 41.1322 27.5438 41.4882C27.2103 41.7614 26.9636 42.0534 26.6282 42.3247C26.4756 42.1476 26.5906 42.2568 26.4172 42.0798C26.7695 41.6955 26.9353 41.5824 27.2687 41.1586C27.7661 40.1375 28.3802 39.4782 29.6857 38.8339C29.9344 38.6794 30.4016 38.2857 30.6559 38.1143C30.8744 38.3573 30.5579 37.9636 30.752 38.2066Z" fill="#177AA9"/>
<path fill-rule="evenodd" clip-rule="evenodd" d="M30.4054 37.7148C30.1134 37.9502 29.6613 38.3044 29.4183 38.5305C28.3256 39.4912 27.5024 39.9773 26.4418 40.0696C26.0443 40.2372 25.7372 40.4558 25.3661 40.6253C25.238 40.4087 25.3228 40.5443 25.2135 40.3371C25.6468 40.0715 25.8371 39.9942 26.2553 39.6627C27.0164 38.8093 27.7793 38.3289 29.2167 38.0652C29.4899 37.9729 30.0512 37.6997 30.315 37.613C30.4826 37.8994 30.2698 37.4416 30.4054 37.7148Z" fill="#177AA9"/>
<path fill-rule="evenodd" clip-rule="evenodd" d="M30.1736 37.1454C29.8496 37.3074 29.324 37.5241 29.0376 37.6823C27.7246 38.3341 26.7732 38.5847 25.7616 38.3944C25.3133 38.4585 24.9666 38.5866 24.5616 38.6544C24.4919 38.4208 24.5559 38.5828 24.4806 38.353C24.9949 38.2023 25.1795 38.1684 25.6712 37.963C26.6263 37.3282 27.4891 37.0682 28.9453 37.168C29.2298 37.168 29.8364 37.0418 30.1152 37.0173C30.1887 37.3621 30.1095 36.8647 30.1736 37.1454Z" fill="#177AA9"/>
<path fill-rule="evenodd" clip-rule="evenodd" d="M30.1076 36.5524C29.7572 36.6127 29.1808 36.6918 28.8455 36.7709C27.4269 37.0724 26.468 37.0724 25.5073 36.6127C25.0796 36.575 24.7085 36.6108 24.2771 36.575C24.2771 36.3226 24.3073 36.4808 24.2978 36.2491C24.8347 36.2303 25.025 36.2491 25.5487 36.1719C26.6319 35.7989 27.5268 35.7819 28.902 36.2491C29.1864 36.3226 29.8043 36.3735 30.0944 36.4187C30.07 36.7728 30.1152 36.2472 30.1076 36.5524Z" fill="#177AA9"/>
<path fill-rule="evenodd" clip-rule="evenodd" d="M30.1886 35.9644C29.8382 35.9267 29.2599 35.8683 28.9151 35.8514C27.4665 35.7628 26.5434 35.5066 25.7277 34.8341C25.3226 34.6721 24.959 34.5948 24.5578 34.4573C24.6331 34.2162 24.5955 34.3838 24.6539 34.1597C25.1606 34.2746 25.3584 34.3424 25.8784 34.414C27.0237 34.3386 27.8941 34.5251 29.1054 35.3634C29.3522 35.4878 29.9418 35.6912 30.1999 35.8193C30.1076 36.1547 30.2828 35.6818 30.1886 35.9644Z" fill="#177AA9"/>
<path fill-rule="evenodd" clip-rule="evenodd" d="M30.4223 35.4144C30.087 35.2806 29.5652 35.0715 29.2298 34.9547C27.8622 34.5271 27.0257 34.0316 26.4135 33.1556C26.0631 32.9089 25.7165 32.7487 25.3774 32.4888C25.5055 32.2815 25.4339 32.4341 25.5431 32.2231C26.0122 32.4812 26.1686 32.5924 26.6659 32.8034C27.7943 33.0275 28.5912 33.4552 29.5482 34.5252C29.7611 34.7513 30.266 35.0847 30.4807 35.2712C30.2999 35.5745 30.6069 35.162 30.4223 35.4144Z" fill="#177AA9"/>
<path fill-rule="evenodd" clip-rule="evenodd" d="M30.8066 34.9342C30.4901 34.71 30.0436 34.3709 29.7554 34.1995C28.5535 33.4083 27.8734 32.7075 27.5004 31.7109C27.2329 31.385 26.9371 31.1514 26.679 30.8293C26.8392 30.6466 26.7525 30.7709 26.907 30.5957C27.2913 30.9744 27.4175 31.1232 27.8357 31.4359C28.8681 31.954 29.5199 32.5719 30.1623 33.883C30.3092 34.1223 30.7105 34.5932 30.8876 34.8099C30.6182 35.0585 31.0213 34.7289 30.8066 34.9342Z" fill="#177AA9"/>
<path fill-rule="evenodd" clip-rule="evenodd" d="M31.2756 34.5837C31.0495 34.3067 30.6916 33.8508 30.4618 33.5946C29.5066 32.5227 29.0357 31.6618 28.9264 30.6257C28.7663 30.2282 28.5346 29.9174 28.3707 29.5331C28.5704 29.4181 28.446 29.5105 28.6457 29.3899C28.9151 29.8401 29.015 30.0134 29.3296 30.4335C30.1886 31.1871 30.6709 31.9519 30.9421 33.3912C31.0231 33.6625 31.302 34.2144 31.398 34.4895C31.0872 34.6534 31.5506 34.4424 31.2756 34.5837Z" fill="#177AA9"/>
<path fill-rule="evenodd" clip-rule="evenodd" d="M31.8446 34.3482C31.692 34.026 31.4641 33.491 31.3058 33.2028C30.6597 31.901 30.4223 30.9685 30.5994 29.9192C30.5259 29.5123 30.4016 29.1469 30.3281 28.7249C30.5598 28.6589 30.4204 28.723 30.6483 28.6589C30.7859 29.1619 30.816 29.3484 31.0232 29.8345C31.6619 30.7896 31.9199 31.6637 31.8107 33.1105C31.8465 33.4081 31.9463 34.0053 31.9708 34.3067C31.6317 34.3783 32.1328 34.2898 31.8446 34.3482Z" fill="#177AA9"/>
<path fill-rule="evenodd" clip-rule="evenodd" d="M32.4248 34.2807C32.3627 33.9133 32.2986 33.3519 32.2176 33.0298C31.9181 31.6056 31.9181 30.6467 32.3702 29.6916C32.423 29.2564 32.3872 28.8816 32.423 28.4558C32.6735 28.4558 32.5153 28.4558 32.7545 28.4558C32.7602 29.0059 32.7545 29.1943 32.811 29.7255C33.1897 30.805 33.2066 31.7092 32.7545 33.075C32.6603 33.3557 32.6095 33.983 32.5661 34.2675C32.2346 34.2468 32.7281 34.307 32.4248 34.2807Z" fill="#177AA9"/>
<path fill-rule="evenodd" clip-rule="evenodd" d="M32.2834 33.2819C34.1032 33.2028 35.6499 34.6383 35.729 36.4638C35.7912 38.2911 34.367 39.8208 32.5321 39.8942C30.7123 39.9639 29.177 38.5379 29.1073 36.7181C29.0357 34.887 30.4617 33.3516 32.2834 33.2819Z" fill="#177AA9"/>
<path fill-rule="evenodd" clip-rule="evenodd" d="M32.3193 34.5272C33.4854 34.4707 34.4236 35.373 34.4726 36.5203C34.5234 37.6581 33.6305 38.6001 32.4776 38.6547C31.351 38.7056 30.3846 37.8051 30.3394 36.6616C30.2923 35.5181 31.1909 34.5686 32.3193 34.5272Z" fill="white"/>
<path fill-rule="evenodd" clip-rule="evenodd" d="M32.3626 35.3447C33.0427 35.3145 33.6248 35.8665 33.6568 36.5296C33.6757 37.2266 33.1331 37.805 32.4493 37.8332C31.7654 37.8596 31.1927 37.3284 31.1833 36.6351C31.1419 35.9419 31.6581 35.3673 32.3626 35.3447Z" fill="#006F9C"/>
<path d="M32.5573 46.3941C37.9742 46.3096 42.297 41.8498 42.2125 36.4328C42.1279 31.0159 37.6681 26.6931 32.2512 26.7776C26.8343 26.8622 22.5115 31.322 22.596 36.7389C22.6805 42.1558 27.1403 46.4786 32.5573 46.3941Z" stroke="#231F20" stroke-width="2.9109" stroke-miterlimit="22.9256"/>
<path d="M40.3603 38.5043C41.4204 34.1098 38.7173 29.6879 34.3228 28.6279C29.9283 27.5678 25.5065 30.2708 24.4464 34.6654C23.3863 39.0599 26.0894 43.4817 30.4839 44.5418C34.8784 45.6019 39.3002 42.8988 40.3603 38.5043Z" stroke="#177AA9" stroke-width="2.126" stroke-miterlimit="22.9256"/>
<path fill-rule="evenodd" clip-rule="evenodd" d="M31.059 46.2373C32.0876 46.4521 33.1557 46.3899 33.9714 46.2524C34.1598 51.8003 34.3953 56.8227 34.5875 62.3631C32.7469 62.5797 30.4204 62.5251 28.4386 62.0918C29.3334 56.6418 30.1585 51.6948 31.059 46.2373Z" fill="black"/>
<path fill-rule="evenodd" clip-rule="evenodd" d="M35.7668 45.8473C36.7954 45.576 37.7335 45.0335 38.3778 44.5437C41.1075 49.404 43.6413 53.7425 46.3653 58.5972C44.8413 59.6107 42.7634 60.6431 40.7966 61.1574C39.0654 55.8845 37.5037 51.0901 35.7668 45.8473Z" fill="black"/>
<path fill-rule="evenodd" clip-rule="evenodd" d="M39.7304 43.3852C40.5235 42.675 41.0378 41.75 41.4033 41.0134C46.0432 44.1255 50.1085 46.7705 54.7371 49.8769C53.8404 51.4669 52.4483 53.2867 50.9355 54.6393C46.9851 50.7228 43.6884 47.3017 39.7304 43.3852Z" fill="black"/>
<path fill-rule="evenodd" clip-rule="evenodd" d="M41.9721 39.5686C42.364 38.6154 42.477 37.5416 42.477 36.7334C47.9176 37.4851 53.0303 38.0898 58.4652 38.8377C58.3729 40.6688 57.9623 42.9313 57.22 44.7887C52.0206 43.0066 47.1603 41.3526 41.9721 39.5686Z" fill="black"/>
<path fill-rule="evenodd" clip-rule="evenodd" d="M42.3376 35.2222C42.2227 34.2049 41.8892 33.2065 41.5935 32.4454C46.7383 30.7387 51.6043 29.0112 56.7547 27.3101C57.448 28.9848 58.0301 31.1983 58.1563 33.2009C52.8061 33.8866 47.7141 34.5629 42.3376 35.2222Z" fill="black"/>
<path fill-rule="evenodd" clip-rule="evenodd" d="M40.855 31.191C40.3577 30.2811 39.5797 29.5389 38.9561 29.0359C43.0196 25.1985 46.4708 21.8188 50.5455 17.9814C51.9245 19.2022 53.3845 20.9617 54.3905 22.725C49.6809 25.6902 45.5816 28.2164 40.855 31.191Z" fill="black"/>
<path fill-rule="evenodd" clip-rule="evenodd" d="M35.4296 27.1631C37.3059 21.9354 37.1533 16.7266 38.5511 11.3425C40.3276 11.7947 43.4209 12.7215 45.1201 13.8217C42.283 18.5972 40.8909 23.6836 38.5511 28.6193C37.7599 28.0655 36.3131 27.344 35.4296 27.1631Z" fill="black"/>
<path fill-rule="evenodd" clip-rule="evenodd" d="M24.2791 30.9422C20.3117 26.5039 16.6834 22.706 13.3754 19.1098C14.3757 17.8551 16.5063 16.2331 18.0775 14.9709C20.2646 18.8498 24.2527 24.0907 26.7809 28.416C25.7711 29.0019 24.767 29.9739 24.2791 30.9422Z" fill="black"/>
<path fill-rule="evenodd" clip-rule="evenodd" d="M23.6649 31.822C23.1129 32.7375 22.8586 33.7585 22.7267 34.5686C17.3464 32.9956 12.6632 31.7466 7.2942 30.1717C7.85371 28.3783 8.61478 26.3098 9.47759 24.4241C14.4528 26.9861 18.6877 29.2844 23.6649 31.822Z" fill="black"/>
<path fill-rule="evenodd" clip-rule="evenodd" d="M22.561 36.3545C22.5045 37.3963 22.7249 38.4381 22.9679 39.2029C17.4727 40.207 12.4937 41.2205 6.97966 42.2378C6.48986 40.4689 6.1583 38.1913 6.28829 36.1831C11.8852 36.2453 16.9546 36.2943 22.561 36.3545Z" fill="black"/>
<path fill-rule="evenodd" clip-rule="evenodd" d="M23.5783 40.7554C23.9814 41.7218 24.6427 42.5601 25.2135 43.1309C20.7318 46.4503 16.7305 49.5228 12.2243 52.8459C11.0017 51.4594 9.7207 49.5529 8.92195 47.7087C13.9537 45.3086 18.5428 43.1554 23.5783 40.7554Z" fill="black"/>
<path fill-rule="evenodd" clip-rule="evenodd" d="M26.6621 44.4175C27.4759 45.0787 28.4424 45.5176 29.2298 45.7644C26.8128 50.7736 24.7199 55.3419 22.2972 60.3285C20.5547 59.6842 18.5126 58.5935 16.9546 57.32C20.2834 52.8666 23.3145 48.8464 26.6621 44.4175Z" fill="black"/>
<path fill-rule="evenodd" clip-rule="evenodd" d="M25.9142 11.5949C29.9268 10.5569 34.7156 10.4156 38.8355 11.6194C38.7338 16.8583 38.8129 23.3557 38.8939 28.6041C35.405 25.963 30.4486 25.6559 25.9933 28.9018C25.8426 23.8738 25.8125 16.442 25.9142 11.5949Z" fill="white"/>
<path fill-rule="evenodd" clip-rule="evenodd" d="M29.584 13.5921L30.9705 13.5582L31.4622 12.7237L32.8016 12.6917L33.476 13.4226L34.8889 13.3548L34.4029 14.3532L30.1416 14.4173L29.584 13.5921Z" fill="black"/>
<path fill-rule="evenodd" clip-rule="evenodd" d="M30.8179 15.0351L33.7303 14.988L32.4776 17.616L30.8179 15.0351Z" fill="black"/>
<path fill-rule="evenodd" clip-rule="evenodd" d="M30.6634 15.706L32.5529 18.5694L34.303 15.5515L34.7081 16.695L32.6339 20.3911L30.1303 16.7722L30.6634 15.706Z" fill="black"/>
<path fill-rule="evenodd" clip-rule="evenodd" d="M27.6775 15.7792L31.2869 19.7899C30.3789 18.2244 29.3334 16.804 28.4291 15.246C27.6699 14.9446 27.6567 15.1292 27.6775 15.7792Z" fill="black"/>
<path fill-rule="evenodd" clip-rule="evenodd" d="M34.0882 19.7483L35.2863 17.531L36.2094 19.9122L35.5011 21.3364L34.7155 21.4004L34.0882 19.7483Z" fill="black"/>
<path fill-rule="evenodd" clip-rule="evenodd" d="M30.7387 20.4813L29.9437 21.9036L29.1487 21.9658L28.2445 21.0389L28.9283 18.2075L30.7387 20.4813Z" fill="black"/>
<path fill-rule="evenodd" clip-rule="evenodd" d="M35.5784 22.5403L37.0798 21.5852L37.304 25.2851L35.5784 22.5403Z" fill="black"/>
<path fill-rule="evenodd" clip-rule="evenodd" d="M27.6982 21.8882L29.0583 23.1202L27.5305 25.5447L27.6982 21.8882Z" fill="black"/>
<path fill-rule="evenodd" clip-rule="evenodd" d="M28.5854 24.7989L31.4941 21.3628L30.5861 24.765L28.5854 24.7989Z" fill="black"/>
<path fill-rule="evenodd" clip-rule="evenodd" d="M31.0345 24.7143C31.8898 24.703 32.7432 24.6785 33.5984 24.6597C33.2989 23.4522 32.6603 22.1862 32.3815 20.9692C31.8144 22.2126 31.5884 23.4729 31.0345 24.7143Z" fill="black"/>
<path fill-rule="evenodd" clip-rule="evenodd" d="M36.1135 24.7803L33.1012 21.4214L34.1279 24.8199L36.1135 24.7803Z" fill="black"/>
<path d="M25.918 11.7214C30.2509 10.4215 34.676 10.3706 38.8412 11.6253C38.8412 17.0414 38.8412 23.6386 38.8412 29.0566C34.8079 26.3043 30.4996 25.9934 25.918 29.115C25.918 23.1224 25.918 17.712 25.918 11.7214Z" stroke="#231F20" stroke-width="0.8" stroke-miterlimit="22.9256"/>
<circle cx="32.5161" cy="36.6957" r="25.8505" stroke="#231F20" stroke-width="0.8"/>
<circle cx="32.6962" cy="36.876" r="29.1191" stroke="#231F20" stroke-width="0.8"/>
</svg>
